<svg width="383" height="62" viewBox="0 0 383 62" fill="none" xmlns="http://www.w3.org/2000/svg">
<path d="M66.152 30.472L62.456 23.368H62.312V49H57.128V15.496H63.176L74.12 34.024L77.816 41.128H77.96V15.496H83.144V49H77.096L66.152 30.472ZM96.5296 15.496V36.136C96.5296 38.984 97.0736 41.128 98.1616 42.568C99.2496 44.008 101.106 44.728 103.73 44.728C106.354 44.728 108.21 44.008 109.298 42.568C110.386 41.128 110.93 38.984 110.93 36.136V15.496H116.258V35.272C116.258 37.736 116.034 39.864 115.586 41.656C115.138 43.448 114.418 44.936 113.426 46.12C112.434 47.272 111.138 48.136 109.538 48.712C107.97 49.288 106.034 49.576 103.73 49.576C101.426 49.576 99.4736 49.288 97.8736 48.712C96.3056 48.136 95.0256 47.272 94.0336 46.12C93.0416 44.936 92.3216 43.448 91.8736 41.656C91.4256 39.864 91.2016 37.736 91.2016 35.272V15.496H96.5296ZM134.332 49.576C131.516 49.576 129.116 49.064 127.132 48.04C125.18 47.016 123.5 45.64 122.092 43.912L125.836 40.408C127.02 41.848 128.316 42.936 129.724 43.672C131.164 44.408 132.796 44.776 134.62 44.776C136.764 44.776 138.38 44.296 139.468 43.336C140.556 42.376 141.1 41.08 141.1 39.448C141.1 38.136 140.716 37.096 139.948 36.328C139.18 35.56 137.82 34.984 135.868 34.6L132.892 34.072C129.628 33.464 127.18 32.392 125.548 30.856C123.916 29.32 123.1 27.208 123.1 24.52C123.1 23.048 123.372 21.72 123.916 20.536C124.492 19.32 125.276 18.312 126.268 17.512C127.292 16.68 128.524 16.04 129.964 15.592C131.404 15.144 133.02 14.92 134.812 14.92C137.34 14.92 139.532 15.368 141.388 16.264C143.244 17.128 144.828 18.392 146.14 20.056L142.348 23.416C141.484 22.296 140.428 21.4 139.18 20.728C137.932 20.056 136.38 19.72 134.524 19.72C132.604 19.72 131.116 20.104 130.06 20.872C129.004 21.64 128.476 22.76 128.476 24.232C128.476 25.64 128.908 26.696 129.772 27.4C130.636 28.072 131.98 28.584 133.804 28.936L136.78 29.56C140.14 30.2 142.588 31.288 144.124 32.824C145.692 34.36 146.476 36.472 146.476 39.16C146.476 40.728 146.204 42.152 145.66 43.432C145.116 44.712 144.316 45.816 143.26 46.744C142.236 47.64 140.972 48.344 139.468 48.856C137.964 49.336 136.252 49.576 134.332 49.576Z" fill="#EF7B00"/>
<path d="M165.563 49.576C161.179 49.576 157.739 48.104 155.243 45.16C152.747 42.184 151.499 37.88 151.499 32.248C151.499 29.432 151.819 26.952 152.459 24.808C153.099 22.664 154.027 20.856 155.243 19.384C156.459 17.912 157.931 16.808 159.659 16.072C161.419 15.304 163.387 14.92 165.563 14.92C168.475 14.92 170.907 15.56 172.859 16.84C174.843 18.12 176.395 20.008 177.515 22.504L172.955 25C172.379 23.4 171.483 22.136 170.267 21.208C169.083 20.248 167.515 19.768 165.563 19.768C162.971 19.768 160.939 20.648 159.467 22.408C157.995 24.168 157.259 26.6 157.259 29.704V34.792C157.259 37.896 157.995 40.328 159.467 42.088C160.939 43.848 162.971 44.728 165.563 44.728C167.579 44.728 169.211 44.216 170.459 43.192C171.739 42.136 172.683 40.792 173.291 39.16L177.659 41.8C176.539 44.232 174.971 46.136 172.955 47.512C170.939 48.888 168.475 49.576 165.563 49.576ZM188.353 49C186.561 49 185.217 48.552 184.321 47.656C183.457 46.728 183.025 45.448 183.025 43.816V13.48H188.257V44.728H191.713V49H188.353ZM211.833 44.872H211.641C211.417 45.48 211.113 46.072 210.729 46.648C210.377 47.224 209.913 47.736 209.337 48.184C208.793 48.6 208.121 48.936 207.321 49.192C206.553 49.448 205.657 49.576 204.633 49.576C202.041 49.576 200.025 48.744 198.585 47.08C197.177 45.416 196.473 43.032 196.473 39.928V24.04H201.705V39.256C201.705 43.128 203.305 45.064 206.505 45.064C207.177 45.064 207.833 44.984 208.473 44.824C209.113 44.632 209.673 44.36 210.153 44.008C210.665 43.656 211.065 43.208 211.353 42.664C211.673 42.12 211.833 41.48 211.833 40.744V24.04H217.065V49H211.833V44.872ZM224.557 13.48H229.789V28.168H230.029C230.573 26.664 231.453 25.512 232.669 24.712C233.917 23.88 235.373 23.464 237.037 23.464C240.205 23.464 242.653 24.616 244.381 26.92C246.109 29.192 246.973 32.392 246.973 36.52C246.973 40.648 246.109 43.864 244.381 46.168C242.653 48.44 240.205 49.576 237.037 49.576C235.373 49.576 233.917 49.16 232.669 48.328C231.453 47.496 230.573 46.344 230.029 44.872H229.789V49H224.557V13.48ZM235.453 45.064C237.277 45.064 238.733 44.488 239.821 43.336C240.909 42.152 241.453 40.6 241.453 38.68V34.36C241.453 32.44 240.909 30.904 239.821 29.752C238.733 28.568 237.277 27.976 235.453 27.976C233.853 27.976 232.509 28.376 231.421 29.176C230.333 29.944 229.789 30.968 229.789 32.248V40.792C229.789 42.072 230.333 43.112 231.421 43.912C232.509 44.68 233.853 45.064 235.453 45.064ZM252.963 13.48H258.195V28.168H258.435C258.979 26.824 259.795 25.704 260.883 24.808C262.003 23.912 263.523 23.464 265.443 23.464C268.003 23.464 269.987 24.312 271.395 26.008C272.835 27.672 273.555 30.056 273.555 33.16V49H268.323V33.784C268.323 29.912 266.755 27.976 263.619 27.976C262.947 27.976 262.275 28.072 261.603 28.264C260.963 28.424 260.387 28.68 259.875 29.032C259.363 29.384 258.947 29.832 258.627 30.376C258.339 30.92 258.195 31.544 258.195 32.248V49H252.963V13.48ZM290.599 49.576C288.871 49.576 287.287 49.272 285.847 48.664C284.439 48.056 283.239 47.192 282.247 46.072C281.255 44.92 280.487 43.544 279.943 41.944C279.399 40.312 279.127 38.504 279.127 36.52C279.127 34.536 279.399 32.744 279.943 31.144C280.487 29.512 281.255 28.136 282.247 27.016C283.239 25.864 284.439 24.984 285.847 24.376C287.287 23.768 288.871 23.464 290.599 23.464C292.327 23.464 293.895 23.768 295.303 24.376C296.743 24.984 297.959 25.864 298.951 27.016C299.943 28.136 300.711 29.512 301.255 31.144C301.799 32.744 302.071 34.536 302.071 36.52C302.071 38.504 301.799 40.312 301.255 41.944C300.711 43.544 299.943 44.92 298.951 46.072C297.959 47.192 296.743 48.056 295.303 48.664C293.895 49.272 292.327 49.576 290.599 49.576ZM290.599 45.256C292.391 45.256 293.831 44.712 294.919 43.624C296.007 42.504 296.551 40.84 296.551 38.632V34.408C296.551 32.2 296.007 30.552 294.919 29.464C293.831 28.344 292.391 27.784 290.599 27.784C288.807 27.784 287.367 28.344 286.279 29.464C285.191 30.552 284.647 32.2 284.647 34.408V38.632C284.647 40.84 285.191 42.504 286.279 43.624C287.367 44.712 288.807 45.256 290.599 45.256ZM323.02 44.872H322.828C322.604 45.48 322.3 46.072 321.916 46.648C321.564 47.224 321.1 47.736 320.524 48.184C319.98 48.6 319.308 48.936 318.508 49.192C317.74 49.448 316.844 49.576 315.82 49.576C313.228 49.576 311.212 48.744 309.772 47.08C308.364 45.416 307.66 43.032 307.66 39.928V24.04H312.892V39.256C312.892 43.128 314.492 45.064 317.692 45.064C318.364 45.064 319.02 44.984 319.66 44.824C320.3 44.632 320.86 44.36 321.34 44.008C321.852 43.656 322.252 43.208 322.54 42.664C322.86 42.12 323.02 41.48 323.02 40.744V24.04H328.252V49H323.02V44.872ZM343.664 49.576C341.296 49.576 339.312 49.16 337.712 48.328C336.112 47.496 334.72 46.344 333.536 44.872L336.896 41.8C337.824 42.92 338.848 43.8 339.968 44.44C341.12 45.048 342.448 45.352 343.952 45.352C345.488 45.352 346.624 45.064 347.36 44.488C348.128 43.88 348.512 43.048 348.512 41.992C348.512 41.192 348.24 40.52 347.696 39.976C347.184 39.4 346.272 39.032 344.96 38.872L342.656 38.584C340.096 38.264 338.08 37.528 336.608 36.376C335.168 35.192 334.448 33.448 334.448 31.144C334.448 29.928 334.672 28.856 335.12 27.928C335.568 26.968 336.192 26.168 336.992 25.528C337.824 24.856 338.8 24.344 339.92 23.992C341.072 23.64 342.336 23.464 343.712 23.464C345.952 23.464 347.776 23.816 349.184 24.52C350.624 25.224 351.904 26.2 353.024 27.448L349.808 30.52C349.168 29.752 348.32 29.096 347.264 28.552C346.24 27.976 345.056 27.688 343.712 27.688C342.272 27.688 341.2 27.976 340.496 28.552C339.824 29.128 339.488 29.88 339.488 30.808C339.488 31.768 339.792 32.488 340.4 32.968C341.008 33.448 341.984 33.8 343.328 34.024L345.632 34.312C348.384 34.728 350.384 35.544 351.632 36.76C352.912 37.944 353.552 39.544 353.552 41.56C353.552 42.776 353.312 43.88 352.832 44.872C352.384 45.832 351.728 46.664 350.864 47.368C350 48.072 348.96 48.616 347.744 49C346.528 49.384 345.168 49.576 343.664 49.576ZM369.255 49.576C367.463 49.576 365.863 49.272 364.455 48.664C363.047 48.056 361.847 47.192 360.855 46.072C359.863 44.92 359.095 43.544 358.551 41.944C358.039 40.312 357.783 38.504 357.783 36.52C357.783 34.536 358.039 32.744 358.551 31.144C359.095 29.512 359.863 28.136 360.855 27.016C361.847 25.864 363.047 24.984 364.455 24.376C365.863 23.768 367.463 23.464 369.255 23.464C371.079 23.464 372.679 23.784 374.055 24.424C375.463 25.064 376.631 25.96 377.559 27.112C378.487 28.232 379.175 29.544 379.623 31.048C380.103 32.552 380.343 34.168 380.343 35.896V37.864H363.207V38.68C363.207 40.6 363.767 42.184 364.887 43.432C366.039 44.648 367.671 45.256 369.783 45.256C371.319 45.256 372.615 44.92 373.671 44.248C374.727 43.576 375.623 42.664 376.359 41.512L379.431 44.536C378.503 46.072 377.159 47.304 375.399 48.232C373.639 49.128 371.591 49.576 369.255 49.576ZM369.255 27.544C368.359 27.544 367.527 27.704 366.759 28.024C366.023 28.344 365.383 28.792 364.839 29.368C364.327 29.944 363.927 30.632 363.639 31.432C363.351 32.232 363.207 33.112 363.207 34.072V34.408H374.823V33.928C374.823 32.008 374.327 30.472 373.335 29.32C372.343 28.136 370.983 27.544 369.255 27.544Z" fill="#003D7C"/>
<path d="M6.99797 11.568C6.12025 12.1443 4.93724 14.3727 4.93724 15.3332C4.93724 15.7942 5.43334 15.6406 7.07429 14.7569C8.2573 14.1038 9.93641 13.3738 10.8141 13.1048C12.7604 12.5285 13.0657 11.568 11.3866 11.2222C9.44031 10.838 7.83752 10.9533 6.99797 11.568Z" fill="#EF7B00"/>
<path d="M29.7804 11.4914C29.2462 12.183 30.0475 12.9129 32.4517 13.9503C33.4058 14.3729 34.8177 15.295 35.581 15.9866L36.993 17.216V15.8329C36.993 14.1424 36.1916 12.4135 35.0086 11.6067C33.94 10.8382 30.391 10.7998 29.7804 11.4914Z" fill="#EF7B00"/>
<path d="M17.5688 17.3312C13.2183 18.9449 10.5852 21.2117 8.60079 25.0153L8.02837 26.1679L7.99021 24.5542C7.99021 23.6705 7.83756 22.8637 7.68491 22.7485C7.15065 22.4411 5.05176 24.8616 4.21221 26.7442C3.79243 27.7047 3.41082 29.2031 3.41082 30.0867C3.41082 30.9704 3.25817 31.8156 3.0292 31.9309C2.30413 32.3919 2.60942 26.7057 3.41082 24.8616C4.59383 22.249 4.40302 21.9416 2.41862 23.4784C1.42641 24.2084 0.472375 24.8232 0.243406 24.8232C0.0144363 24.8232 -0.0618869 24.9 0.0525978 25.0153C0.167083 25.1305 0.739506 25.0537 1.31193 24.8232C1.88435 24.5926 2.45678 24.4774 2.5331 24.5926C2.60942 24.6695 2.38045 25.3995 1.96068 26.2447C0.892152 28.3578 0.58686 29.933 0.58686 33.9287C0.548698 37.5402 0.815829 37.9629 1.73171 35.7345C2.037 35.0045 2.41862 34.4282 2.57126 34.4282C2.72391 34.4282 2.80023 35.7729 2.72391 37.3866C2.60942 40.3065 2.64759 40.4602 4.55566 44.4175L6.54007 48.4516L7.26514 46.9916C8.14285 45.3011 8.48631 45.2243 9.09689 46.6074C9.59299 47.7216 12.2643 51.2947 12.6078 51.3331C12.7222 51.3331 13.1039 50.7184 13.4473 49.9884C14.1342 48.49 14.5158 48.3363 15.2409 49.22C15.508 49.5658 16.8055 50.5647 18.103 51.4868L20.469 53.1389L22.7206 51.9862C23.9417 51.3715 25.43 50.411 26.0406 49.8731L27.071 48.8742V49.9116C27.071 50.4879 27.1855 50.9489 27.3 50.9489C28.025 50.9489 30.5437 48.4132 30.9635 47.299C31.4214 45.9159 32.032 45.4932 32.032 46.5306C32.032 47.03 34.5125 49.0279 35.1612 49.0279C35.3521 49.0279 35.4665 48.49 35.4665 47.8369C35.4665 47.1837 36.0008 45.4164 36.6495 43.918C37.4128 42.1891 37.947 40.1912 38.0997 38.5008C38.3668 35.965 38.405 35.8498 38.8629 36.7718C39.1301 37.3097 39.6262 37.9244 40.0078 38.155C40.6565 38.5776 40.7328 38.3086 40.9236 34.9661C41.1526 31.7772 40.771 27.7431 40.2367 27.2052C40.1223 27.0899 40.0459 27.6662 40.0459 28.5115C40.0459 29.8946 40.0078 29.933 39.5117 29.2031C39.2064 28.7804 38.8248 27.9736 38.7103 27.3973C38.5576 26.8594 38.1379 26.1294 37.7181 25.7452C37.0312 25.1305 36.993 25.1305 36.764 25.7837C36.6114 26.1679 36.8404 27.1668 37.3365 28.2041C38.2142 30.0099 38.9011 35.1966 38.2905 35.1966C38.0997 35.1966 37.7562 34.044 37.5273 32.584C36.8022 28.0504 33.9019 23.3248 33.4821 26.0526C33.3677 26.821 33.2532 26.7826 32.5281 25.361C30.62 21.7111 26.4222 17.5233 24.705 17.5233C24.3234 17.5233 24.0181 17.7923 24.0181 18.0996C24.0181 18.407 24.3615 18.6759 24.8195 18.6759C26.1933 18.6759 31.3451 24.5926 32.9479 28.012C33.1387 28.3578 33.215 28.3578 33.4058 27.9736C33.5203 27.7431 33.7493 27.5126 33.9401 27.5126C34.4362 27.5126 35.4665 30.5093 35.1994 31.2393C34.9704 31.8541 35.0086 31.8541 35.581 31.4314C36.1153 30.9704 36.2298 31.0472 36.4587 31.8925C37.222 34.9661 34.398 38.8081 30.5055 39.9607C22.0337 42.4196 21.3468 42.5733 19.7058 42.1891C15.0883 41.1133 10.3562 39.6918 9.32586 39.0386C6.88352 37.5018 5.3189 34.9277 5.3189 32.3919C5.3189 30.8551 5.62419 30.4325 6.34926 31.0088C6.73087 31.3546 6.84536 31.1625 6.84536 29.9715C6.88352 29.1262 7.11249 27.9352 7.41778 27.3205C7.91388 26.2063 7.91388 26.2063 7.95204 27.0899C7.99021 27.8583 8.37182 27.4741 9.86012 25.1305C10.8905 23.5553 12.3788 21.7111 13.1802 21.0196C14.9356 19.598 19.5913 17.1391 20.6217 17.1391C21.0415 17.1391 21.3468 16.947 21.3468 16.7549C21.3468 16.1786 20.2401 16.3323 17.5688 17.3312Z" fill="#EF7B00"/>
<path d="M3.0292 17.9843C2.34229 18.2532 2.22781 18.4453 2.64758 18.5606C2.95288 18.6758 3.41082 19.0216 3.67795 19.329C4.05956 19.8285 4.17405 19.79 4.55566 19.0985C4.93728 18.2916 4.78463 17.4848 4.25037 17.5617C4.09772 17.5617 3.56346 17.7538 3.0292 17.9843Z" fill="#EF7B00"/>
<path d="M37.9471 21.4037C38.4813 23.0174 39.7407 25.4379 39.5117 24.3621C39.3972 23.8242 39.1682 23.0942 39.0537 22.7484C38.8629 22.2874 39.0537 22.1337 39.8933 22.1337H41L39.7407 21.3653C38.1379 20.3664 37.6418 20.4048 37.9471 21.4037Z" fill="#EF7B00"/>
<path d="M39.7024 26.2062C39.7024 26.6288 39.8169 26.7441 39.9314 26.4367C40.0459 26.1678 40.0077 25.822 39.8932 25.7067C39.7788 25.5531 39.6643 25.7836 39.7024 26.2062Z" fill="#EF7B00"/>
<path d="M14.4013 26.6289C13.0275 28.1273 13.7525 31.3546 15.4316 31.3546C15.9659 31.3546 16.5383 31.0472 16.7673 30.6246C17.2634 29.6641 17.2634 26.8594 16.7673 26.552C16.5765 26.4368 16.3857 26.5136 16.3857 26.7057C16.3857 27.3588 15.3172 27.2052 15.1645 26.5136C15.05 25.9757 14.9737 25.9757 14.4013 26.6289Z" fill="#EF7B00"/>
<path d="M26.9184 26.5136C27.071 26.9362 26.9565 27.1283 26.5368 27.1283C26.1933 27.1283 25.9262 26.9362 25.9262 26.7057C25.9262 26.3983 25.7354 26.3983 25.3538 26.7441C24.5142 27.4357 24.6287 29.933 25.5064 30.7398C26.4986 31.6619 27.529 31.3929 28.1395 30.0482C28.5975 29.1646 28.5975 28.7419 28.1395 27.5893C27.8724 26.8593 27.4145 26.1678 27.1473 26.0525C26.8802 25.9757 26.7657 26.1294 26.9184 26.5136Z" fill="#EF7B00"/>
<path d="M18.2938 33.6598C18.2938 34.044 18.8281 34.8124 19.4768 35.3503C20.927 36.6182 20.927 38.3087 19.4387 38.6545C18.5991 38.8466 18.5609 38.9234 19.1715 39.1539C20.2019 39.5381 22.7969 39.4997 23.064 39.0771C23.1785 38.885 22.8732 38.6545 22.4153 38.5776C21.0796 38.3855 20.9651 36.3108 22.2626 35.5809C23.1022 35.1582 23.8654 33.8904 23.7127 33.2756C23.6746 33.1604 22.4534 33.0451 20.9651 33.0451C18.6373 32.9683 18.2938 33.0835 18.2938 33.6598Z" fill="#EF7B00"/>
</svg>
